<svg xmlns="http://www.w3.org/2000/svg" width="1564.694" height="259" viewBox="0 0 1564.694 259">
  <g id="Group_20892" data-name="Group 20892" transform="translate(-391.306 -811)">
    <g id="Group_20890" data-name="Group 20890" transform="translate(187 102.828)">
      <g id="Group_20889" data-name="Group 20889" transform="translate(204.306 708.172)">
        <path id="Path_254831" data-name="Path 254831" d="M-6364.595,9906.381v-47.727h91.11s17.529,1.612,33.876,9.486c13.287,6.4,25.325,18,30.267,27.79,11,21.806,9.53,43.221,0,61.892s-19.424,26.266-19.424,26.266a142.168,142.168,0,0,0-14.392-16.023c-8.137-7.676-21.273-14.067-21.273-14.067s12.852-7.725,13.976-23.921-21.844-23.146-30.228-23.7S-6364.595,9906.381-6364.595,9906.381Z" transform="translate(6364.595 -9858.654)" fill="#006b68"/>
        <path id="Path_254832" data-name="Path 254832" d="M-6353.977,9947.5v135.462h49.293v-82.691s17.406.636,37.621,20.113,15.334,22.131,36.4,42.565,39.851,20.013,39.851,20.013h134.7s30.775-6.224,43.333-26.623,14.012-59.427,0-80.862-39.9-27.977-39.9-27.977h-59.217s-19.711-2.246-19.809-17.793,19.809-16.11,19.809-16.11h41.207a15.147,15.147,0,0,1,12.128,5.443c5.2,6.106,5.882,10.667,5.882,10.667h51.983s1.071-23.894-15.182-43.177-42.684-24.349-42.684-24.349h-63.521s-28.249,4.944-42.82,19.9-20.225,34.7-20.346,47.622,5.71,34.64,20.346,50.017,42.82,18.692,42.82,18.692h56.3s13.11.047,15.84,15.952-15.84,19.319-15.84,19.319h-114.585s-11.622-1.585-23.977-15.354-20.84-23.192-34-36.584c-26.632-27.107-64.349-32.068-64.349-32.068Z" transform="translate(6357.123 -9861.137)" fill="#394149"/>
      </g>
    </g>
    <text id="Rishi_Sankhla" data-name="Rishi Sankhla" transform="translate(815 1011)" fill="#394149" font-size="168" font-family="Poppins-SemiBold, Poppins" font-weight="600"><tspan x="0" y="0">Rishi Sankhla</tspan></text>
  </g>
</svg>
